<?xml version="1.0" encoding="UTF-8"?>
<svg id="Layer_2" data-name="Layer 2" xmlns="http://www.w3.org/2000/svg" xmlns:xlink="http://www.w3.org/1999/xlink" viewBox="0 0 1174.17 1174.17">
  <defs>
    <style>
      .cls-1 {
        clip-rule: evenodd;
      }

      .cls-1, .cls-2, .cls-3 {
        fill: #2e3192;
      }

      .cls-3 {
        fill-rule: evenodd;
      }

      .cls-4 {
        clip-path: url(#clippath);
      }
    </style>
    <clipPath id="clippath">
      <path class="cls-1" d="M532.55,398.57c-61.54,31.91-116.71,127.97-130.25,195.73-12.56,62.88,19.9,76.19,68.19,47.53,26.99-16.01,53.23-33.28,80.2-49.32,55.98-33.3,108.88-38.9,136.34,28.04,3.08,7.51,5.67,15.23,8.37,22.9,1.89,5.37,2.52,5.69,3.45-.83,2.55-18.02,1.4-35.86-3.1-53.44-18.36-71.71-98.11-73.98-155.35-42.36-8.44,4.66-29.73,15.55-45.52,22.94-34.63,16.22-23.5-16.64-12.75-34.67,11.38-19.07,24.61-36.86,39.82-53.04,12.22-13.01,32.06-34.32,49.2-15.88,11.94,12.85,20.27,28.91,30.56,42.98,16.15,22.1,45.73,4.26,46.95-22.4,1.41-30.77-21.72-64.85-46.02-81.99-22.29-15.72-45.7-18.83-70.08-6.19"/>
    </clipPath>
  </defs>
  <path class="cls-2" d="M894.56,844.91c15.62-2.82,23.9-14.85,23.9-30.31,0-25.78-19.06-33.6-41.72-33.6h-42.81v110.63h24.37v-44.22h12.04l23.12,44.22h29.22l-28.12-46.72ZM872.69,826.79h-14.38v-25.15h15.94c8.91,0,18.91,1.71,18.91,12.81,0,12.03-11.57,12.34-20.47,12.34Z"/>
  <path class="cls-2" d="M772.2,781h-20.15l-47.81,110.63h26.87l9.22-23.44h42.96l9.54,23.44h27.49l-48.13-110.63ZM747.98,847.57l13.44-34.38,13.59,34.38h-27.03Z"/>
  <polygon class="cls-2" points="624.52 891.63 694.05 891.63 694.05 869.13 648.9 869.13 648.9 781.01 624.52 781.01 624.52 891.63"/>
  <path class="cls-2" d="M550.45,778.2c-34.52,0-59.68,22.65-59.68,58.12s25.16,58.13,59.68,58.13,59.68-22.66,59.68-58.13-25.15-58.12-59.68-58.12ZM550.45,871.94c-20.78,0-34.38-15-34.38-35.63s13.6-35.63,34.38-35.63,34.38,15,34.38,35.63-13.6,35.63-34.38,35.63Z"/>
  <path class="cls-2" d="M475.91,789.76c-9.38-8.28-21.41-11.56-33.91-11.56-21.72,0-42.19,12.34-42.19,35.94,0,36.87,51.87,25.94,51.87,46.25,0,7.81-8.91,11.56-16.87,11.56s-16.25-3.91-21.25-10.47l-17.34,19.06c10.47,9.69,22.97,13.91,37.19,13.91,22.81,0,42.65-11.72,42.65-36.41,0-38.75-50.94-25.78-50.94-45.94,0-8.28,9.53-11.41,16.4-11.41,5.94,0,13.75,2.34,17.66,7.34l16.72-18.28Z"/>
  <path class="cls-2" d="M415.76,689.24v9.17c5.08-7.48,13.97-11.99,23.28-11.99,17.49,0,28.92,12.98,28.92,30.75v43.73h-15.24v-42.6c0-10.58-6.35-18.2-17.07-18.2s-19.61,8.18-19.61,19.61v41.19h-15.38v-71.66h15.09Z"/>
  <path class="cls-2" d="M553.87,725.07c0,22.71-16.08,38.65-38.93,38.65s-38.93-15.94-38.93-38.65,15.94-38.65,38.93-38.65,38.93,15.94,38.93,38.65ZM538.63,725.07c0-14.53-10.02-24.97-23.7-24.97s-23.56,10.44-23.56,24.97,9.73,24.97,23.56,24.97,23.7-10.44,23.7-24.97Z"/>
  <path class="cls-2" d="M579.69,760.9l-26.24-71.66h16.36l20.6,59.81,20.74-59.81h16.5l-26.38,71.66h-21.58Z"/>
  <path class="cls-2" d="M687.32,760.9v-9.17c-4.94,7.48-13.97,11.99-23.14,11.99-17.63,0-29.06-12.98-29.06-30.75v-43.73h15.38v42.6c0,10.58,6.21,18.2,17.07,18.2s19.61-8.18,19.61-19.61v-41.19h15.23v71.66h-15.09Z"/>
  <path class="cls-2" d="M276.65,688.67h21.16v72.23h-21.16v-10.02c-5.64,8.04-14.25,12.84-24.55,12.84-20.31,0-34.56-16.08-34.56-38.93s14.25-38.93,34.56-38.93c10.3,0,18.9,4.8,24.55,12.84v-10.02ZM276.51,724.79c0-11.71-7.9-20.31-18.9-20.31s-18.9,8.6-18.9,20.31,7.9,20.31,18.9,20.31,18.9-8.6,18.9-20.31Z"/>
  <path class="cls-2" d="M331.53,656.23v104.67h-21.16v-104.67h21.16Z"/>
  <path class="cls-2" d="M365.1,656.23v104.67h-21.16v-104.67h21.16Z"/>
  <g>
    <path class="cls-3" d="M532.55,398.57c-61.54,31.91-116.71,127.97-130.25,195.73-12.56,62.88,19.9,76.19,68.19,47.53,26.99-16.01,53.23-33.28,80.2-49.32,55.98-33.3,108.88-38.9,136.34,28.04,3.08,7.51,5.67,15.23,8.37,22.9,1.89,5.37,2.52,5.69,3.45-.83,2.55-18.02,1.4-35.86-3.1-53.44-18.36-71.71-98.11-73.98-155.35-42.36-8.44,4.66-29.73,15.55-45.52,22.94-34.63,16.22-23.5-16.64-12.75-34.67,11.38-19.07,24.61-36.86,39.82-53.04,12.22-13.01,32.06-34.32,49.2-15.88,11.94,12.85,20.27,28.91,30.56,42.98,16.15,22.1,45.73,4.26,46.95-22.4,1.41-30.77-21.72-64.85-46.02-81.99-22.29-15.72-45.7-18.83-70.08-6.19"/>
    <g class="cls-4">
      <rect class="cls-2" x="389.73" y="385.93" width="311.66" height="284.56"/>
    </g>
  </g>
  <path class="cls-3" d="M1052.65,511.08l-42.73-2.62c-5.96-.37-13.19,4.8-16.15,11.49l-20.42,46.19c-3.04,6.88-.8,13.21,5.07,14.06l42.09,6.07c6.52.94,14.5-4.36,17.64-11.76l21.06-49.64c3.05-7.19.06-13.38-6.56-13.79"/>
  <path class="cls-3" d="M983.5,506.84l-36.93-2.26c-5.17-.32-11.69,4.51-14.55,10.74l-19.71,42.95c-2.93,6.39-1.23,12.23,3.84,12.96l36.28,5.23c5.6.81,12.73-4.14,15.76-10.98l20.36-45.92c2.95-6.65.64-12.37-5.05-12.72"/>
  <path class="cls-3" d="M923.6,503.17l-32.24-1.98c-4.53-.28-10.45,4.25-13.21,10.08l-19,40.14c-2.83,5.97-1.56,11.39,2.88,12.02l31.6,4.55c4.86.7,11.28-3.93,14.21-10.29l19.65-42.72c2.85-6.2,1.08-11.5-3.88-11.81"/>
  <path class="cls-3" d="M871.23,499.96l-28.39-1.74c-4-.24-9.41,4.02-12.07,9.49l-18.32,37.67c-2.73,5.6-1.79,10.65,2.12,11.21l27.76,4c4.26.61,10.09-3.75,12.91-9.69l18.95-39.93c2.75-5.8,1.4-10.75-2.96-11.02"/>
  <path class="cls-3" d="M825.04,497.12l-25.19-1.54c-3.56-.22-8.54,3.81-11.11,8.97l-17.67,35.48c-2.63,5.27-1.97,10,1.51,10.5l24.59,3.54c3.76.54,9.1-3.58,11.81-9.15l18.27-37.48c2.65-5.45,1.64-10.08-2.22-10.32"/>
  <path class="cls-3" d="M1017.68,592.87l-42.03-6.37c-5.86-.89-13.1,4.07-16.18,11.05l-21.27,48.11c-3.17,7.17-1.13,14.19,4.62,15.6l41.29,10.12c6.41,1.57,14.41-3.48,17.69-11.22l22-51.86c3.18-7.51.38-14.44-6.13-15.43"/>
  <path class="cls-3" d="M949.7,582.56l-36.22-5.49c-5.07-.77-11.59,3.89-14.56,10.36l-20.47,44.61c-3.05,6.64-1.54,13.08,3.42,14.29l35.49,8.69c5.48,1.34,12.62-3.39,15.78-10.52l21.2-47.81c3.07-6.93.95-13.28-4.64-14.13"/>
  <path class="cls-3" d="M891,573.66l-31.54-4.78c-4.43-.67-10.34,3.71-13.2,9.75l-19.69,41.58c-2.93,6.19-1.83,12.12,2.49,13.18l30.82,7.55c4.75,1.16,11.16-3.29,14.2-9.9l20.4-44.35c2.96-6.43,1.36-12.29-3.49-13.02"/>
  <path class="cls-3" d="M839.79,565.89l-27.71-4.2c-3.9-.59-9.3,3.54-12.06,9.2l-18.94,38.94c-2.82,5.79-2.05,11.29,1.76,12.22l27.02,6.62c4.15,1.02,9.97-3.19,12.9-9.34l19.63-41.36c2.85-6,1.66-11.43-2.59-12.08"/>
  <path class="cls-3" d="M794.73,559.06l-24.54-3.72c-3.46-.53-8.43,3.39-11.08,8.71l-18.23,36.61c-2.71,5.44-2.2,10.57,1.17,11.4l23.88,5.85c3.66.9,8.98-3.09,11.79-8.85l18.89-38.74c2.74-5.63,1.88-10.69-1.88-11.26"/>
  <path class="cls-3" d="M981.17,678.28l-41.22-10.45c-5.74-1.45-12.99,3.29-16.21,10.55l-22.17,50.15c-3.31,7.48-1.48,15.25,4.14,17.27l40.38,14.53c6.27,2.26,14.29-2.52,17.73-10.61l23.01-54.22c3.33-7.85.74-15.59-5.66-17.21"/>
  <path class="cls-3" d="M914.53,661.38l-35.42-8.98c-4.95-1.26-11.47,3.21-14.55,9.93l-21.27,46.36c-3.17,6.91-1.86,13.98,2.97,15.72l34.6,12.44c5.35,1.93,12.49-2.58,15.78-10l22.1-49.83c3.2-7.22,1.28-14.25-4.2-15.64"/>
  <path class="cls-3" d="M857.16,646.83l-30.76-7.8c-4.31-1.1-10.22,3.12-13.18,9.38l-20.41,43.11c-3.04,6.41-2.13,12.9,2.07,14.41l29.97,10.78c4.62,1.66,11.03-2.6,14.19-9.46l21.2-46.09c3.07-6.68,1.66-13.13-3.08-14.33"/>
  <path class="cls-3" d="M807.24,634.17l-26.96-6.84c-3.79-.96-9.19,3.03-12.03,8.88l-19.6,40.28c-2.92,5.99-2.32,11.97,1.36,13.3l26.21,9.43c4.03,1.45,9.84-2.58,12.87-8.97l20.35-42.87c2.95-6.22,1.94-12.16-2.2-13.22"/>
  <path class="cls-3" d="M763.41,623.05l-23.83-6.04c-3.36-.85-8.31,2.94-11.05,8.43l-18.82,37.8c-2.8,5.61-2.45,11.17.81,12.34l23.12,8.31c3.54,1.28,8.85-2.56,11.76-8.52l19.53-40.07c2.84-5.82,2.14-11.33-1.51-12.26"/>
  <path class="cls-2" d="M883.54,458.45l-3.03-6.37c-33.09-70.14-88.46-123.6-154.06-154.68-65.4-30.99-140.82-39.64-214.24-20.27-74.09,19.54-134.27,64.29-173.41,122.56.66-.74,1.32-1.48,1.99-2.22,57.82-63.73,139.55-105.83,231.5-111.17,55.43-3.22,109.7,7.38,158.3,29.73,48.53,22.32,91.49,56.42,124.38,100.22l28.59,42.21ZM739.65,340.2c-6.1-3.29-12.31-6.4-18.62-9.29-47.93-22.05-101.35-32.51-155.81-29.34-88.47,5.14-166.18,44.62-220.31,104.29-12.38,13.65-23.54,28.41-33.32,44.11-11.69,27.59-19.44,57.21-22.71,87.99,16.23-50.51,43.9-95.63,79.89-132.19,59.13-60.08,140.88-97.24,231.22-97.24,48.93,0,96.5,11.12,139.66,31.67ZM293.98,637.73l1.63,7.8h-23.03v-2.86c0-1.93.02-3.86.05-5.79-3.99-26.02-4.87-51.96-2.9-77.42-3.98,22.78-5.46,46.39-4.16,70.52.11,2.05.27,4.46.49,7.26.23,2.97.44,5.39.63,7.25l.1,1.03h-13.15c-.12-1.7-.23-3.61-.35-5.71-3.1-57.52,9.01-112.71,32.89-161.81,8.31-25.04,19.45-49.05,33.13-71.54,44.47-73.1,114.74-129.1,200.96-151.83,75.92-20.02,153.53-11.25,220.54,20.5,66.81,31.65,123.25,86.23,157.08,157.94,7.5,15.77,13.98,31.26,20.73,47.42l-42.81.02-5.91-9.14c-28.47-43.94-67.17-79.31-111.96-103.83-45.6-24.97-97.33-38.61-150.98-38.61-88.48,0-168.63,36.48-226.68,95.45-48.52,49.29-81.48,114.16-90.77,186.35,1.1,8.97,2.58,17.97,4.46,27Z"/>
</svg>