<?xml version="1.0" encoding="UTF-8"?>
<svg id="Layer_2" data-name="Layer 2" xmlns="http://www.w3.org/2000/svg" xmlns:xlink="http://www.w3.org/1999/xlink" viewBox="0 0 1174.17 1174.17">
  <defs>
    <style>
      .cls-1 {
        clip-rule: evenodd;
      }

      .cls-1, .cls-2, .cls-3 {
        fill: #2e3192;
      }

      .cls-4 {
        fill: #231f20;
      }

      .cls-5 {
        fill: #fff;
      }

      .cls-3 {
        fill-rule: evenodd;
      }

      .cls-6 {
        clip-path: url(#clippath);
      }
    </style>
    <clipPath id="clippath">
      <path class="cls-1" d="M564.01,397.78c-63.5,32.92-120.43,132.04-134.4,201.95-12.96,64.88,20.53,78.61,70.37,49.04,27.84-16.52,54.93-34.33,82.76-50.89,57.76-34.36,112.34-40.14,140.68,28.93,3.18,7.75,5.85,15.71,8.63,23.63,1.95,5.54,2.6,5.87,3.56-.86,2.63-18.59,1.44-37-3.2-55.14-18.94-74-101.23-76.34-160.29-43.71-8.71,4.81-30.67,16.04-46.97,23.67-35.73,16.74-24.25-17.17-13.15-35.77,11.74-19.68,25.4-38.03,41.08-54.72,12.61-13.42,33.08-35.41,50.77-16.38,12.32,13.26,20.92,29.83,31.53,44.35,16.66,22.8,47.18,4.4,48.44-23.11,1.45-31.75-22.41-66.91-47.48-84.6-22.99-16.22-47.15-19.43-72.31-6.39"/>
    </clipPath>
  </defs>
  <path class="cls-3" d="M579.75,257.53c-99.79-1.51-203.78,39.01-281.05,116.27-17.45,17.45,8.09,36.96,21.04,19.78,12.77-16.94,46.78-46.53,71.83-55.72,4.42-1.62,5.22,3.21,2.15,4.25-64.92,41.05-135.44,135.77-130.35,272.6,1.6,42.99,57.42,37.19,55.11,2.37-7.56-113.95,46.36-222.94,145.71-278.4,11.42-6.38,23.28-12,35.46-16.85-3.46-7.24-3.46-15.94-1.08-23.5,3.32-10.57,10.94-18.81,20.28-24.49,16.05-9.75,37.72-14.58,60.9-16.31"/>
  <path class="cls-2" d="M443.5,697.69v9.46c5.24-7.71,14.41-12.37,24.02-12.37,18.05,0,29.84,13.39,29.84,31.73v45.13h-15.72v-43.96c0-10.92-6.55-18.78-17.61-18.78s-20.23,8.44-20.23,20.23v42.51h-15.87v-73.95h15.58Z"/>
  <path class="cls-2" d="M586.01,734.66c0,23.44-16.59,39.89-40.18,39.89s-40.18-16.45-40.18-39.89,16.45-39.89,40.18-39.89,40.18,16.45,40.18,39.89ZM570.29,734.66c0-14.99-10.34-25.77-24.46-25.77s-24.31,10.77-24.31,25.77,10.04,25.77,24.31,25.77,24.46-10.77,24.46-25.77Z"/>
  <path class="cls-2" d="M612.65,771.64l-27.08-73.95h16.89l21.25,61.72,21.4-61.72h17.03l-27.22,73.95h-22.27Z"/>
  <path class="cls-2" d="M721.38,771.64v-9.46c-5.09,7.71-14.41,12.37-23.87,12.37-18.2,0-29.99-13.39-29.99-31.73v-45.13h15.87v43.96c0,10.92,6.41,18.78,17.61,18.78s20.23-8.44,20.23-20.23v-42.51h15.72v73.95h-15.58Z"/>
  <path class="cls-2" d="M299.97,697.11h21.83v74.53h-21.83v-10.33c-5.82,8.3-14.7,13.25-25.33,13.25-20.96,0-35.66-16.59-35.66-40.18s14.7-40.18,35.66-40.18c10.63,0,19.51,4.95,25.33,13.25v-10.33ZM299.83,734.37c0-12.08-8.15-20.96-19.51-20.96s-19.51,8.88-19.51,20.96,8.15,20.96,19.51,20.96,19.51-8.88,19.51-20.96Z"/>
  <path class="cls-2" d="M356.59,663.63v108.01h-21.84v-108.01h21.84Z"/>
  <path class="cls-2" d="M391.24,663.63v108.01h-21.84v-108.01h21.84Z"/>
  <g>
    <path class="cls-3" d="M564.01,397.78c-63.5,32.92-120.43,132.04-134.4,201.95-12.96,64.88,20.53,78.61,70.37,49.04,27.84-16.52,54.93-34.33,82.76-50.89,57.76-34.36,112.34-40.14,140.68,28.93,3.18,7.75,5.85,15.71,8.63,23.63,1.95,5.54,2.6,5.87,3.56-.86,2.63-18.59,1.44-37-3.2-55.14-18.94-74-101.23-76.34-160.29-43.71-8.71,4.81-30.67,16.04-46.97,23.67-35.73,16.74-24.25-17.17-13.15-35.77,11.74-19.68,25.4-38.03,41.08-54.72,12.61-13.42,33.08-35.41,50.77-16.38,12.32,13.26,20.92,29.83,31.53,44.35,16.66,22.8,47.18,4.4,48.44-23.11,1.45-31.75-22.41-66.91-47.48-84.6-22.99-16.22-47.15-19.43-72.31-6.39"/>
    <g class="cls-6">
      <rect class="cls-2" x="416.65" y="384.73" width="321.58" height="293.61"/>
    </g>
  </g>
  <path class="cls-3" d="M843.15,748.24c85.57-98.01,86.09-323.1-58.66-446.71-13.75-11.74-26.77-.92-25.85,10.56-43.15-37.92-163.1-64.58-227.46-26.62-18.19,10.73-19.57,27.71-15.04,36.03,4.46,9.19,13.8,15.82,26.67,14.2,239.25-30.22,407.95,195.69,300.34,412.54"/>
  <path class="cls-4" d="M778.16,848.68v-57.84h29.72v52.43l-1.33.15c-8.9,1-17.82,2.61-26.52,4.79l-1.86.47ZM781.16,793.84v51.01c7.8-1.88,15.76-3.31,23.72-4.25v-46.75h-23.72Z"/>
  <path class="cls-5" d="M770.93,843.58c8.27-.94,16.68-1.98,25.21-3.15,5.11-.7,10.17-1.42,15.17-2.17.65,1.94,1.29,3.88,1.94,5.82-7.72,1.01-15.58,1.96-23.58,2.84-6.22.69-12.36,1.31-18.43,1.89-.1-1.75-.21-3.49-.31-5.24Z"/>
  <path class="cls-2" d="M814.06,913.59h29.46l10.1-25.69h47.1l10.45,25.69h30.14l-52.75-121.25h-22.09l-52.41,121.25ZM891.64,865.3h-29.63l14.73-37.68,14.9,37.68Z"/>
  <path class="cls-2" d="M806.37,792.34h-26.72v73.47c0,14.9-10.28,26.2-24.32,26.2s-24.49-11.3-24.49-26.2v-73.47h-26.72v74.5c0,28.6,17.47,49.84,51.21,49.84s51.04-21.24,51.04-49.84v-74.5Z"/>
  <path class="cls-2" d="M695.41,893.04h-33.91v-.34c16.61-7.36,24.15-24.15,24.15-41.27,0-36.48-28.77-62.17-64.74-62.17s-64.73,25.52-64.73,62.17c0,39.05,27.91,62.17,65.76,62.17h73.47v-20.55ZM583.93,851.43c0-20.89,16.61-37.51,36.99-37.51s36.99,16.61,36.99,37.51-16.61,37.51-36.99,37.51-36.99-16.61-36.99-37.51Z"/>
  <path class="cls-2" d="M427.76,913.59h29.46l10.1-25.69h47.1l10.45,25.69h30.14l-52.75-121.25h-22.09l-52.41,121.25ZM505.34,865.3h-29.63l14.73-37.68,14.9,37.68Z"/>
  <path class="cls-5" d="M884.58,861.7c-3.5-.85-6.9-2.02-10.17-3.13l10.17,3.13Z"/>
  <path class="cls-5" d="M838.16,848.81c4.17,2.37,9.62,4.98,16.27,6.99,5.3,1.6,10.13,2.46,14.2,2.91-.32,1.4-.65,2.8-.97,4.19-4.05.11-10.75-.13-18.33-2.42-6.43-1.95-11.08-4.64-13.96-6.61.93-1.69,1.86-3.37,2.8-5.06Z"/>
  <path class="cls-5" d="M916.27,848.81c-4.17,2.37-9.62,4.98-16.27,6.99-5.3,1.6-10.13,2.46-14.2,2.91.32,1.4.65,2.8.97,4.19,4.05.11,10.75-.13,18.33-2.42,6.43-1.95,11.08-4.64,13.96-6.61-.93-1.69-1.86-3.37-2.8-5.06Z"/>
  <path class="cls-5" d="M704.15,868.48c6.54-1.13,10.73-2.8,15.86-4.49,3.25-1.07,7.88-2.48,13.66-3.86.34,1.6.69,3.21,1.03,4.81-6.57,1.9-13.46,3.72-20.66,5.41-4.45,1.04-8.8,1.98-13.06,2.83-.65-1.34-1.29-2.68-1.94-4.01,1.2-.12,2.98-.32,5.11-.69Z"/>
  <path class="cls-5" d="M649.28,875.55c6.45,1.11,11.33.29,16.78-.54,4.35-.67,10.89-1.63,19.75-2.77-2.34,1.74-3.46,3.95-2.85,5.41.12.29.35.65.81.99-3.7.58-9.01,1.35-15.46,2.05-3.41.37-6.08.66-8.99.83-4.71.27-11.44.31-19.77-.85,1.44-2.15,2.87-4.31,4.31-6.46,1.25.4,3.12.93,5.42,1.33Z"/>
  <path class="cls-5" d="M493.86,847.09c7.27-.07,15.41.31,24.22,1.46,4.7.61,9.14,1.39,13.29,2.26.89,3.03,1.78,6.05,2.68,9.08-6.53-1.98-14.29-3.79-23.11-4.82-5-.58-9.69-.84-13.99-.88-1.03-2.37-2.06-4.73-3.08-7.1Z"/>
  <path class="cls-5" d="M451.19,850.11c6.14-.96,12.76-1.76,19.81-2.29,5.38-.4,10.53-.62,15.41-.68-.7,2.13-1.4,4.27-2.09,6.4-6.16-.03-12.83.2-19.92.79-5.75.48-11.17,1.15-16.23,1.95,1.01-2.06,2.02-4.11,3.03-6.17Z"/>
  <path class="cls-5" d="M553.91,859.5c6.74,2.43,14.78,4.75,23.99,6.29,5.09.85,9.88,1.36,14.3,1.62.44,1.34,1.13,3.03,2.27,4.83,1.43,2.26,3.02,3.85,4.25,4.89-8.92-1.17-13.95-2.02-16.64-2.51-.26-.05-.53-.1-.53-.1-1.54-.28-4.88-.92-10.85-2.23-4.19-.92-9.66-2.16-16.12-3.76-.22-3.01-.44-6.03-.66-9.04Z"/>
</svg>