<?xml version="1.0" encoding="UTF-8"?>
<svg id="Layer_2" data-name="Layer 2" xmlns="http://www.w3.org/2000/svg" viewBox="0 0 1174.17 1174.17">
  <defs>
    <style>
      .cls-1 {
        fill: #2e3192;
      }
    </style>
  </defs>
  <path class="cls-1" d="M950.76,661.89H223.41c-38.6,0-70.01-31.41-70.01-70.01v-222.99c0-38.6,31.41-70.01,70.01-70.01h727.34c38.6,0,70.01,31.41,70.01,70.01v222.99c0,38.6-31.41,70.01-70.01,70.01ZM223.41,322.88c-25.37,0-46.01,20.64-46.01,46.01v222.99c0,25.37,20.64,46.01,46.01,46.01h727.34c25.37,0,46.01-20.64,46.01-46.01v-222.99c0-25.37-20.64-46.01-46.01-46.01H223.41Z"/>
  <path class="cls-1" d="M1008.76,574.55H165.41c-6.63,0-12-5.37-12-12s5.37-12,12-12h843.35c6.63,0,12,5.37,12,12s-5.37,12-12,12Z"/>
  <path class="cls-1" d="M1000.07,620.28H169.2c-6.63,0-12-5.37-12-12s5.37-12,12-12h830.87c6.63,0,12,5.37,12,12s-5.37,12-12,12Z"/>
  <path class="cls-1" d="M830.2,475.01H296.77c-6.63,0-12-5.37-12-12s5.37-12,12-12h533.42c6.63,0,12,5.37,12,12s-5.37,12-12,12Z"/>
  <path class="cls-1" d="M318.38,922.9c-2.65,0-5.33-.88-7.55-2.68-5.15-4.17-5.94-11.73-1.77-16.88,16.12-19.89,22.6-37.08,19.26-51.07-2.81-11.75-12.25-19.15-23.19-27.72-12.62-9.88-26.92-21.09-31.94-40.94-5.66-22.37,2.91-48.03,25.47-76.27,4.14-5.18,11.69-6.02,16.87-1.89,5.18,4.14,6.02,11.69,1.89,16.87-17.62,22.07-24.67,40.71-20.96,55.41,3.01,11.9,12.49,19.33,23.47,27.93,12.64,9.91,26.98,21.13,31.73,41.04,5.17,21.63-2.89,45.77-23.96,71.76-2.37,2.93-5.84,4.44-9.33,4.44Z"/>
  <path class="cls-1" d="M457.11,922.9c-2.65,0-5.33-.88-7.55-2.68-5.15-4.17-5.94-11.73-1.77-16.88,16.12-19.89,22.6-37.08,19.26-51.07-2.81-11.75-12.25-19.15-23.19-27.72-12.62-9.88-26.92-21.09-31.94-40.94-5.66-22.37,2.91-48.03,25.47-76.27,4.14-5.18,11.69-6.02,16.87-1.89,5.18,4.14,6.02,11.69,1.89,16.87-17.62,22.07-24.67,40.71-20.96,55.41,3.01,11.9,12.49,19.33,23.47,27.93,12.64,9.91,26.98,21.13,31.73,41.04,5.17,21.63-2.89,45.77-23.96,71.76-2.37,2.93-5.84,4.44-9.33,4.44Z"/>
  <path class="cls-1" d="M602.97,922.9c-2.65,0-5.33-.88-7.55-2.68-5.15-4.17-5.94-11.73-1.77-16.88,16.12-19.89,22.6-37.08,19.26-51.07-2.81-11.75-12.25-19.15-23.19-27.72-12.62-9.88-26.92-21.09-31.94-40.94-5.66-22.37,2.91-48.03,25.47-76.27,4.14-5.18,11.69-6.02,16.87-1.89,5.18,4.14,6.02,11.69,1.89,16.87-17.62,22.07-24.67,40.71-20.96,55.41,3.01,11.9,12.49,19.33,23.47,27.93,12.64,9.91,26.98,21.13,31.73,41.04,5.17,21.63-2.89,45.77-23.96,71.76-2.37,2.93-5.84,4.44-9.33,4.44Z"/>
  <path class="cls-1" d="M741.7,922.9c-2.65,0-5.33-.88-7.55-2.68-5.15-4.17-5.94-11.73-1.77-16.88,16.12-19.89,22.6-37.08,19.26-51.07-2.81-11.75-12.25-19.15-23.19-27.72-12.62-9.88-26.92-21.09-31.94-40.94-5.66-22.37,2.91-48.03,25.47-76.27,4.14-5.18,11.69-6.02,16.87-1.89,5.18,4.14,6.02,11.69,1.89,16.87-17.62,22.07-24.67,40.71-20.96,55.41,3.01,11.9,12.49,19.33,23.47,27.93,12.64,9.91,26.98,21.13,31.73,41.04,5.17,21.63-2.89,45.77-23.96,71.76-2.37,2.93-5.84,4.44-9.33,4.44Z"/>
  <path class="cls-1" d="M896.56,922.9c-2.65,0-5.33-.88-7.55-2.68-5.15-4.17-5.94-11.73-1.77-16.88,16.12-19.89,22.6-37.08,19.26-51.07-2.81-11.75-12.25-19.15-23.19-27.72-12.62-9.88-26.92-21.09-31.94-40.94-5.66-22.37,2.91-48.03,25.47-76.27,4.14-5.18,11.69-6.02,16.87-1.89,5.18,4.14,6.02,11.69,1.89,16.87-17.62,22.07-24.67,40.71-20.96,55.41,3.01,11.9,12.49,19.33,23.47,27.93,12.64,9.91,26.98,21.13,31.73,41.04,5.17,21.63-2.89,45.77-23.96,71.76-2.37,2.93-5.84,4.44-9.33,4.44Z"/>
</svg>