<?xml version="1.0" encoding="UTF-8"?>
<svg id="Layer_2" data-name="Layer 2" xmlns="http://www.w3.org/2000/svg" viewBox="0 0 1174.17 1174.17">
  <defs>
    <style>
      .cls-1 {
        fill: #fff;
      }

      .cls-2 {
        fill: #2e3192;
      }
    </style>
  </defs>
  <path class="cls-2" d="M282.08,320.49c-3.16,0-5.98-1.98-7.05-4.95-1.08-2.97-.18-6.3,2.25-8.32,29.85-24.85,65.09-47.18,101.92-64.58,64.77-30.59,133.35-46.1,203.86-46.1.27,0,.54,0,.81,0,70.22.12,138.52,15.62,203,46.06,36.62,17.29,71.72,39.5,101.48,64.21,2.43,2.02,3.34,5.34,2.26,8.31-1.07,2.97-3.89,4.95-7.05,4.96l-601.48.4h0ZM583.08,211.55c-132.95,0-231.23,58.01-279.33,93.93l558.15-.38c-47.93-35.69-145.8-93.33-278.04-93.55-.25,0-.52,0-.77,0Z"/>
  <path class="cls-2" d="M828.06,980.12h-488.85c-52.65,0-95.48-42.83-95.48-95.48v-454.42c0-5.52,4.48-10,10-10h659.81c5.52,0,10,4.48,10,10v454.42c0,52.65-42.83,95.48-95.48,95.48ZM263.72,440.22v444.42c0,41.62,33.86,75.48,75.48,75.48h488.85c41.62,0,75.48-33.86,75.48-75.48v-444.42H263.72Z"/>
  <g>
    <path class="cls-1" d="M266.73,311.69h633.79c7.18,0,13.01,5.83,13.01,13.01v72.93H253.72v-72.93c0-7.18,5.83-13.01,13.01-13.01Z"/>
    <path class="cls-2" d="M913.54,407.64H253.72c-5.52,0-10-4.48-10-10v-72.93c0-12.69,10.32-23.01,23.01-23.01h633.79c12.69,0,23.01,10.32,23.01,23.01v72.93c0,5.52-4.48,10-10,10ZM263.72,387.64h639.81v-62.93c0-1.66-1.35-3.01-3.01-3.01H266.73c-1.66,0-3.01,1.35-3.01,3.01v62.93Z"/>
  </g>
  <path class="cls-2" d="M768.61,884.73h-350.56c-8.48,0-15.39-6.9-15.39-15.38v-433.08c0-5.52,4.48-10,10-10h361.33c5.52,0,10,4.48,10,10v433.08c0,8.48-6.9,15.38-15.39,15.38ZM422.67,864.73h341.33v-418.47h-341.33v418.47Z"/>
  <circle class="cls-2" cx="516.29" cy="492.66" r="12.48"/>
  <circle class="cls-2" cx="582.36" cy="492.66" r="12.48"/>
  <circle class="cls-2" cx="649.36" cy="492.66" r="12.48"/>
  <g>
    <rect class="cls-1" x="190.28" y="394.09" width="793.61" height="38.63" rx="15.68" ry="15.68"/>
    <path class="cls-2" d="M968.21,442.73H205.96c-14.16,0-25.68-11.52-25.68-25.68v-7.27c0-14.16,11.52-25.68,25.68-25.68h762.25c14.16,0,25.68,11.52,25.68,25.68v7.27c0,14.16-11.52,25.68-25.68,25.68ZM205.96,404.09c-3.13,0-5.68,2.55-5.68,5.68v7.27c0,3.13,2.55,5.68,5.68,5.68h762.25c3.13,0,5.68-2.55,5.68-5.68v-7.27c0-3.13-2.55-5.68-5.68-5.68H205.96Z"/>
  </g>
  <path class="cls-2" d="M583.63,764.91c-38.19,0-69.27-31.07-69.27-69.27s31.07-69.27,69.27-69.27,69.27,31.07,69.27,69.27-31.07,69.27-69.27,69.27ZM583.63,646.38c-27.17,0-49.27,22.1-49.27,49.27s22.1,49.27,49.27,49.27,49.27-22.1,49.27-49.27-22.1-49.27-49.27-49.27Z"/>
  <path class="cls-2" d="M581.83,626.68c-5.52,0-10-4.48-10-10v-60.64c0-5.52,4.48-10,10-10s10,4.48,10,10v60.64c0,5.52-4.48,10-10,10Z"/>
  <path class="cls-2" d="M581.83,845.26c-5.52,0-10-4.48-10-10v-60.64c0-5.52,4.48-10,10-10s10,4.48,10,10v60.64c0,5.52-4.48,10-10,10Z"/>
  <path class="cls-2" d="M722.19,706.04h-60.64c-5.52,0-10-4.48-10-10s4.48-10,10-10h60.64c5.52,0,10,4.48,10,10s-4.48,10-10,10Z"/>
  <path class="cls-2" d="M642.29,647.79c-2.46,0-4.93-.9-6.86-2.73-4.02-3.79-4.2-10.12-.41-14.14l41.62-44.11c3.79-4.02,10.12-4.2,14.14-.41,4.02,3.79,4.2,10.12.41,14.14l-41.62,44.11c-1.97,2.08-4.62,3.14-7.28,3.14Z"/>
  <path class="cls-2" d="M486.29,809.02c-2.46,0-4.93-.9-6.86-2.73-4.02-3.79-4.2-10.12-.41-14.14l41.62-44.11c3.79-4.02,10.12-4.2,14.14-.41,4.02,3.79,4.2,10.12.41,14.14l-41.62,44.11c-1.97,2.08-4.62,3.14-7.28,3.14Z"/>
  <path class="cls-2" d="M681.44,806.67c-2.66,0-5.31-1.05-7.28-3.14l-41.62-44.11c-3.79-4.02-3.61-10.35.41-14.14,4.02-3.79,10.35-3.61,14.14.41l41.62,44.11c3.79,4.02,3.61,10.35-.41,14.14-1.93,1.82-4.4,2.73-6.86,2.73Z"/>
  <path class="cls-2" d="M527.91,647.79c-2.66,0-5.31-1.05-7.28-3.14l-41.62-44.11c-3.79-4.02-3.61-10.35.41-14.14,4.02-3.79,10.35-3.61,14.14.41l41.62,44.11c3.79,4.02,3.61,10.35-.41,14.14-1.93,1.82-4.4,2.73-6.86,2.73Z"/>
  <path class="cls-2" d="M507.1,706.04h-60.64c-5.52,0-10-4.48-10-10s4.48-10,10-10h60.64c5.52,0,10,4.48,10,10s-4.48,10-10,10Z"/>
</svg>