<?xml version="1.0" encoding="UTF-8"?>
<svg id="Layer_2" data-name="Layer 2" xmlns="http://www.w3.org/2000/svg" viewBox="0 0 1174.17 1174.17">
  <defs>
    <style>
      .cls-1 {
        fill: #2e3192;
      }
    </style>
  </defs>
  <path class="cls-1" d="M819.41,412.24c-13.95,0-25.3-11.35-25.3-25.3s11.35-25.3,25.3-25.3,25.3,11.35,25.3,25.3-11.35,25.3-25.3,25.3ZM819.41,375.64c-6.23,0-11.3,5.07-11.3,11.3s5.07,11.3,11.3,11.3,11.3-5.07,11.3-11.3-5.07-11.3-11.3-11.3Z"/>
  <path class="cls-1" d="M1003.58,912.83H170.59c-5.52,0-10-4.48-10-10V349.38c0-48.55,39.49-88.04,88.04-88.04h675.98c49.05,0,88.96,39.91,88.96,88.96v552.53c0,5.52-4.48,10-10,10ZM180.59,892.83h812.98V350.3c0-38.03-30.94-68.96-68.96-68.96H248.63c-37.52,0-68.04,30.52-68.04,68.04v543.45Z"/>
  <path class="cls-1" d="M942.97,846.46H233.46c-5.52,0-10-4.48-10-10v-432.65c0-48.55,39.49-88.04,88.04-88.04h552.51c49.05,0,88.96,39.91,88.96,88.96v431.73c0,5.52-4.48,10-10,10ZM243.46,826.46h689.51v-421.73c0-38.03-30.94-68.96-68.96-68.96H311.5c-37.52,0-68.04,30.52-68.04,68.04v422.65Z"/>
  <path class="cls-1" d="M942.97,444.48H235.06c-5.52,0-10-4.48-10-10s4.48-10,10-10h707.91c5.52,0,10,4.48,10,10s-4.48,10-10,10Z"/>
  <rect class="cls-1" x="234.61" y="486.92" width="710.45" height="20"/>
  <rect class="cls-1" x="234.61" y="528.94" width="710.45" height="20"/>
  <rect class="cls-1" x="234.61" y="595.08" width="710.45" height="20"/>
  <rect class="cls-1" x="234.61" y="637.09" width="710.45" height="20"/>
  <rect class="cls-1" x="234.61" y="702.49" width="710.45" height="20"/>
  <rect class="cls-1" x="234.61" y="744.5" width="710.45" height="20"/>
  <circle class="cls-1" cx="308.04" cy="515.83" r="7.58"/>
  <circle class="cls-1" cx="375.2" cy="515.83" r="7.58"/>
  <circle class="cls-1" cx="442.35" cy="515.83" r="7.58"/>
  <circle class="cls-1" cx="509.51" cy="515.83" r="7.58"/>
  <circle class="cls-1" cx="576.66" cy="515.83" r="7.58"/>
  <circle class="cls-1" cx="643.82" cy="515.83" r="7.58"/>
  <circle class="cls-1" cx="710.98" cy="515.83" r="7.58"/>
  <circle class="cls-1" cx="778.13" cy="515.83" r="7.58"/>
  <circle class="cls-1" cx="845.29" cy="515.83" r="7.58"/>
  <circle class="cls-1" cx="308.04" cy="623.41" r="7.58"/>
  <circle class="cls-1" cx="375.2" cy="623.41" r="7.58"/>
  <circle class="cls-1" cx="442.35" cy="623.41" r="7.58"/>
  <circle class="cls-1" cx="509.51" cy="623.41" r="7.58"/>
  <circle class="cls-1" cx="576.66" cy="623.41" r="7.58"/>
  <circle class="cls-1" cx="643.82" cy="623.41" r="7.58"/>
  <circle class="cls-1" cx="710.98" cy="623.41" r="7.58"/>
  <circle class="cls-1" cx="778.13" cy="623.41" r="7.58"/>
  <circle class="cls-1" cx="845.29" cy="623.41" r="7.58"/>
  <circle class="cls-1" cx="308.04" cy="731" r="7.58"/>
  <circle class="cls-1" cx="375.2" cy="731" r="7.58"/>
  <circle class="cls-1" cx="442.35" cy="731" r="7.58"/>
  <circle class="cls-1" cx="509.51" cy="731" r="7.58"/>
  <circle class="cls-1" cx="576.66" cy="731" r="7.58"/>
  <circle class="cls-1" cx="643.82" cy="731" r="7.58"/>
  <circle class="cls-1" cx="710.98" cy="731" r="7.58"/>
  <circle class="cls-1" cx="778.13" cy="731" r="7.58"/>
  <circle class="cls-1" cx="845.29" cy="731" r="7.58"/>
</svg>