<?xml version="1.0" encoding="UTF-8"?>
<svg id="Layer_2" data-name="Layer 2" xmlns="http://www.w3.org/2000/svg" viewBox="0 0 1174.17 1174.17">
  <defs>
    <style>
      .cls-1 {
        fill: #2e3192;
      }
    </style>
  </defs>
  <path class="cls-1" d="M905.43,1029.43H268.74c-6.9,0-12.5-5.6-12.5-12.5V157.24c0-6.9,5.6-12.5,12.5-12.5h636.69c6.9,0,12.5,5.6,12.5,12.5v859.7c0,6.9-5.6,12.5-12.5,12.5ZM281.24,1004.43h611.69V169.74H281.24v834.7Z"/>
  <path class="cls-1" d="M807.83,270.74h-143c-6.9,0-12.5-5.6-12.5-12.5s5.6-12.5,12.5-12.5h143c6.9,0,12.5,5.6,12.5,12.5s-5.6,12.5-12.5,12.5Z"/>
  <circle class="cls-1" cx="371.49" cy="256.86" r="21.85"/>
  <circle class="cls-1" cx="458.59" cy="256.86" r="21.85"/>
  <path class="cls-1" d="M589.68,912.86c-61.62,0-119.55-24-163.12-67.57-43.57-43.57-67.57-101.5-67.57-163.12s24-119.55,67.57-163.12,101.5-67.57,163.12-67.57,119.55,24,163.12,67.57c43.57,43.57,67.57,101.5,67.57,163.12s-24,119.55-67.57,163.12c-43.57,43.57-101.5,67.57-163.12,67.57ZM589.68,476.49c-113.42,0-205.69,92.27-205.69,205.69s92.27,205.69,205.69,205.69,205.69-92.27,205.69-205.69-92.27-205.69-205.69-205.69Z"/>
  <path class="cls-1" d="M595.93,834.08c-19.77,0-88.47-4.48-132.62-63.69-36.69-49.2-41.25-117.09-11.6-172.96,2.59-4.88,8.64-6.73,13.52-4.15,4.88,2.59,6.73,8.64,4.15,13.52-26.04,49.07-22.13,108.59,9.96,151.63,18.03,24.18,42.96,40.85,74.08,49.56,24.36,6.82,44.08,6.12,46.25,6.01,5.53-.25,10.2,4,10.46,9.52.26,5.52-4,10.2-9.52,10.46-.89.04-2.48.1-4.68.1Z"/>
  <path class="cls-1" d="M700.58,750.25c-6.9,0-12.5-5.6-12.5-12.5v-113.5c0-6.9,5.6-12.5,12.5-12.5s12.5,5.6,12.5,12.5v113.5c0,6.9-5.6,12.5-12.5,12.5Z"/>
  <path class="cls-1" d="M905.43,343.29H268.74c-6.9,0-12.5-5.6-12.5-12.5s5.6-12.5,12.5-12.5h636.69c6.9,0,12.5,5.6,12.5,12.5s-5.6,12.5-12.5,12.5Z"/>
</svg>