<?xml version="1.0" encoding="UTF-8"?>
<svg id="Layer_2" data-name="Layer 2" xmlns="http://www.w3.org/2000/svg" viewBox="0 0 1174.17 1174.17">
  <defs>
    <style>
      .cls-1 {
        fill: #2e3192;
      }
    </style>
  </defs>
  <path class="cls-1" d="M804.8,1055.4h-435.43c-6.35,0-11.5-5.15-11.5-11.5V130.27c0-6.35,5.15-11.5,11.5-11.5h435.43c6.35,0,11.5,5.15,11.5,11.5v913.63c0,6.35-5.15,11.5-11.5,11.5ZM380.87,1032.4h412.43V141.77h-412.43v890.63Z"/>
  <g>
    <path class="cls-1" d="M733.13,562.59h-77.25c-3.04,0-5.5-2.46-5.5-5.5v-190.27c0-3.04,2.46-5.5,5.5-5.5h77.25c3.04,0,5.5,2.46,5.5,5.5v190.27c0,3.04-2.46,5.5-5.5,5.5ZM661.38,551.59h66.25v-179.27h-66.25v179.27Z"/>
    <path class="cls-1" d="M655.88,425.46c-1.23,0-2.47-.41-3.5-1.26-2.34-1.93-2.67-5.4-.74-7.74l43.89-53.14c1.93-2.34,5.4-2.67,7.74-.74,2.34,1.93,2.67,5.4.74,7.74l-43.89,53.14c-1.09,1.32-2.66,2-4.24,2Z"/>
    <path class="cls-1" d="M655.88,459.74c-1.19,0-2.38-.38-3.39-1.17-2.39-1.87-2.81-5.33-.94-7.72l68.48-87.42c1.87-2.39,5.33-2.81,7.72-.94,2.39,1.87,2.81,5.33.94,7.72l-68.48,87.42c-1.08,1.38-2.7,2.11-4.33,2.11Z"/>
    <path class="cls-1" d="M655.88,492.31c-1.19,0-2.4-.39-3.41-1.19-2.38-1.88-2.79-5.34-.9-7.73l77.25-97.71c1.88-2.38,5.34-2.79,7.73-.9,2.38,1.88,2.79,5.34.9,7.73l-77.25,97.71c-1.09,1.37-2.69,2.09-4.32,2.09Z"/>
    <path class="cls-1" d="M655.88,530.02c-1.18,0-2.37-.38-3.37-1.16-2.4-1.86-2.83-5.32-.97-7.72l77.25-99.42c1.86-2.4,5.32-2.83,7.72-.97,2.4,1.86,2.83,5.32.97,7.72l-77.25,99.42c-1.08,1.4-2.71,2.13-4.35,2.13Z"/>
    <path class="cls-1" d="M662.9,562.59c-1.11,0-2.23-.34-3.21-1.03-2.47-1.77-3.03-5.21-1.26-7.68l70.23-97.71c1.77-2.47,5.21-3.03,7.68-1.26,2.47,1.77,3.03,5.21,1.26,7.68l-70.23,97.71c-1.07,1.5-2.76,2.29-4.47,2.29Z"/>
    <path class="cls-1" d="M687.48,562.59c-1.11,0-2.24-.34-3.21-1.04-2.47-1.77-3.03-5.21-1.25-7.68l45.65-63.42c1.77-2.47,5.21-3.02,7.68-1.25,2.47,1.77,3.03,5.21,1.25,7.68l-45.65,63.42c-1.07,1.49-2.76,2.29-4.47,2.29Z"/>
  </g>
  <path class="cls-1" d="M587.08,1053.69c-6.35,0-11.5-5.15-11.5-11.5V130.27c0-6.35,5.15-11.5,11.5-11.5s11.5,5.15,11.5,11.5v911.92c0,6.35-5.15,11.5-11.5,11.5Z"/>
  <path class="cls-1" d="M615.75,563.69c-5.52,0-10-4.48-10-10v-205.7c0-5.52,4.48-10,10-10s10,4.48,10,10v205.7c0,5.52-4.48,10-10,10Z"/>
</svg>