<?xml version="1.0" encoding="UTF-8"?>
<svg id="Layer_2" data-name="Layer 2" xmlns="http://www.w3.org/2000/svg" viewBox="0 0 1174.17 1174.17">
  <defs>
    <style>
      .cls-1 {
        fill: #2e3192;
      }
    </style>
  </defs>
  <path class="cls-1" d="M998.42,795.23H175.75c-10.49,0-19.02-8.53-19.02-19.02v-474.14c0-10.49,8.53-19.03,19.02-19.03h822.67c10.49,0,19.02,8.54,19.02,19.03v474.14c0,10.49-8.53,19.02-19.02,19.02ZM184.73,767.23h804.72v-456.19H184.73v456.19Z"/>
  <path class="cls-1" d="M243.36,891.13c-3.08,0-6.17-1.01-8.76-3.09-6.03-4.84-6.99-13.66-2.14-19.68l77.06-95.9c2.89-3.6,7.37-5.54,11.98-5.19,4.6.35,8.74,2.95,11.05,6.95l35.68,61.65c3.87,6.69,1.59,15.26-5.1,19.13-6.69,3.87-15.26,1.59-19.13-5.1l-25.44-43.97-64.27,79.98c-2.77,3.44-6.83,5.23-10.92,5.23Z"/>
  <path class="cls-1" d="M942.13,891.13c-4.1,0-8.16-1.79-10.92-5.23l-64.27-79.98-25.44,43.97c-3.87,6.69-12.44,8.98-19.13,5.1-6.69-3.87-8.98-12.44-5.1-19.13l35.68-61.65c2.31-4,6.45-6.6,11.05-6.95,4.6-.36,9.09,1.59,11.98,5.19l77.06,95.9c4.84,6.03,3.88,14.84-2.14,19.68-2.59,2.08-5.68,3.09-8.76,3.09Z"/>
</svg>